# xmcd
#
# Track frame offsets:
#	150
#	16252
#	31374
#	47747
#	66365
#	88976
#	108040
#	123841
#	139670
#	163937
#	184225
#
# Disc length: 2683 seconds
#
# Revision: 1
# Processed by: cddbd v1.4PL0 Copyright (c) Steve Scherf et al.
# Submitted via: CDmax 1.8
#
DISCID=930a790b
DTITLE=Louisiana Red - Live In Montreux
DYEAR=2001
DGENRE=Blues
TTITLE0=Bring It On Home To Me
TTITLE1=First Degree
TTITLE2=Look At The Children Run
TTITLE3=My Heart's A Looser
TTITLE4=When My Mama Was Living
TTITLE5=Held Up In One Town
TTITLE6=Turkey Killer
TTITLE7=Date With Barbara
TTITLE8=Standing At Your Door
TTITLE9=Going Train Blues
TTITLE10=Sweet Blood Call
EXTD=
EXTT0=
EXTT1=
EXTT2=
EXTT3=
EXTT4=
EXTT5=
EXTT6=
EXTT7=
EXTT8=
EXTT9=
EXTT10=
PLAYORDER=
